<?xml version="1.0" encoding="UTF-8"?>
<svg id="Layer_2" data-name="Layer 2" xmlns="http://www.w3.org/2000/svg" viewBox="0 0 139.86 129.88">
  <defs>
    <style>
      .cls-1 {
        fill: none;
        stroke: #232e65;
        stroke-miterlimit: 10;
        stroke-width: 21.55px;
      }

      .cls-2 {
        fill: #be202e;
      }

      .cls-2, .cls-3 {
        stroke-width: 0px;
      }

      .cls-3 {
        fill: #fff;
      }
    </style>
  </defs>
  <g id="Layer_1-2" data-name="Layer 1">
    <g>
      <ellipse class="cls-3" cx="70.15" cy="65.53" rx="50.25" ry="44.37"/>
      <g>
        <path class="cls-2" d="m69.93,26.45c24.13,0,43.76,17.39,43.76,38.77s-19.63,38.77-43.76,38.77-43.76-17.39-43.76-38.77,19.63-38.77,43.76-38.77m0-13.08c-31.39,0-56.85,23.22-56.85,51.86s25.45,51.86,56.85,51.86,56.85-23.22,56.85-51.86S101.32,13.36,69.93,13.36h0Z"/>
        <path class="cls-2" d="m69.93,13.08c31.39,0,56.85,23.22,56.85,51.86s-25.45,51.86-56.85,51.86S13.08,93.58,13.08,64.94,38.53,13.08,69.93,13.08m0-13.08C31.37,0,0,29.13,0,64.94s31.37,64.94,69.93,64.94,69.93-29.13,69.93-64.94S108.49,0,69.93,0h0Z"/>
        <ellipse class="cls-1" cx="70.15" cy="65.39" rx="56.85" ry="51.86"/>
        <g>
          <path class="cls-3" d="m28.16,26.18c.47-.41.94-.8,1.42-1.19-.18,1.36-.32,2.7-.42,4.04,1.58.35,3.13.76,4.64,1.22-.47.38-.94.78-1.4,1.18-1.11-.29-2.23-.54-3.37-.77-.02.34-.04.69-.06,1.03.49.51.97,1.02,1.46,1.54-.38.36-.76.73-1.13,1.1-1.59-1.59-3.18-3.18-4.77-4.77.42-.42.84-.83,1.26-1.23.66.7,1.33,1.4,1.99,2.1.08-1.41.21-2.82.39-4.25Z"/>
          <path class="cls-3" d="m31.79,28.79c-1-1.19-.91-2.59.67-3.79,1.59-1.19,2.8-.77,3.6.41.9,1.31.83,2.59-.66,3.72-1.5,1.15-2.68.78-3.61-.34Zm2.96-2.39c-.63-.86-1.12-.97-1.69-.53-.58.44-.66,1.01,0,1.84.67.85,1.17,1,1.77.54.54-.41.59-.93-.08-1.85Z"/>
          <path class="cls-3" d="m37.21,23.88c.57.88,1.14,1.76,1.71,2.63-.42.27-.84.55-1.25.84-.92-1.33-1.83-2.67-2.75-4,.38-.26.77-.52,1.16-.78.17.19.35.38.52.58.05-.6.28-1.22,1.02-1.67.07-.05.16-.1.24-.14.24.39.47.78.71,1.17-.64.32-1.15.85-1.36,1.37Z"/>
          <path class="cls-3" d="m38.77,23.75c-.93-1.48-.3-2.82,1.02-3.55,1.48-.83,2.52-.33,3.13.87.07.14.2.42.26.58-.96.49-1.9,1.01-2.84,1.55.43.68.89.75,1.47.43.47-.26.52-.61.42-1.02.42-.12.85-.23,1.27-.34.24.89-.17,1.76-1.23,2.36-1.65.93-2.8.25-3.5-.87Zm1.44-2.63c-.4.22-.65.67-.3,1.29.48-.28.97-.56,1.46-.83-.33-.61-.71-.72-1.16-.46Z"/>
          <path class="cls-3" d="m47.93,20.8c.08-.03.16-.09.26-.17.12.24.23.49.35.73-.15.16-.5.41-.79.54-.54.23-.92.23-1.21-.14-.13.5-.48.91-1.11,1.21-1.14.56-1.73-.04-1.95-.47-.69-1.32.73-2.3,1.99-2.85-.02-.05-.05-.11-.07-.16-.23-.5-.44-.77-1.07-.48-.47.22-.57.49-.45.96-.43.12-.86.25-1.29.39-.27-.88.07-1.68,1.44-2.32,1.34-.62,2.22-.44,2.69.68.27.62.53,1.25.8,1.87.1.24.19.32.43.22Zm-3.2.81c.12.25.35.42.78.22.32-.15.57-.45.65-.65-.12-.26-.24-.52-.36-.78-.07.03-.15.07-.22.1-.66.32-1.07.67-.86,1.12Z"/>
          <path class="cls-3" d="m47.6,18.25c.86-.35,1.73-.68,2.6-.99.13.38.27.76.4,1.13-.86.3-1.71.63-2.55.97-.15-.37-.3-.74-.45-1.11Z"/>
          <path class="cls-3" d="m51.05,20.48c-.77-2.12-1.53-4.23-2.3-6.35.93-.34,1.87-.65,2.81-.94,1.92-.59,2.77.28,3.04,1.31.42,1.57-.29,2.61-2.08,3.18-.25.08-.5.16-.76.25.23.69.46,1.38.69,2.07-.47.16-.94.32-1.4.49Zm2-5.43c-.24-.83-.86-.85-1.62-.6-.25.08-.5.16-.75.24.24.71.48,1.43.71,2.14.2-.07.4-.13.6-.2.77-.25,1.32-.63,1.05-1.58Z"/>
          <path class="cls-3" d="m54.99,16.7c-.47-1.69.48-2.78,1.92-3.1,1.62-.36,2.46.4,2.71,1.73.03.16.08.46.09.63-1.03.2-2.07.42-3.09.67.22.77.63.98,1.26.83.52-.12.66-.43.67-.85.43,0,.86.02,1.29.04-.02.92-.64,1.64-1.8,1.9-1.8.42-2.7-.57-3.05-1.84Zm2.07-2.09c-.43.1-.79.45-.63,1.15.53-.13,1.06-.25,1.6-.37-.15-.68-.48-.89-.97-.78Z"/>
          <path class="cls-3" d="m63.44,17.47c-.13-1.02-.27-2.03-.4-3.05-.07-.52-.32-.71-.8-.64-.42.06-.8.34-.97.53.18,1.13.36,2.26.55,3.4-.48.08-.96.16-1.43.25-.3-1.59-.59-3.18-.89-4.77.46-.08.92-.16,1.38-.24.05.15.11.31.16.47.33-.38.88-.73,1.62-.83,1.19-.16,1.77.32,1.88,1.42.12,1.1.24,2.2.36,3.3-.48.05-.96.11-1.44.17Z"/>
          <path class="cls-3" d="m68.2,17.03c-.05-1.02-.1-2.05-.16-3.07-.03-.52-.26-.73-.74-.7-.42.03-.82.27-1.01.45.09,1.14.18,2.29.27,3.43-.48.04-.96.08-1.44.13-.17-1.61-.33-3.22-.5-4.83.46-.05.92-.09,1.39-.13.04.16.08.32.12.48.36-.36.94-.66,1.68-.7,1.2-.06,1.73.46,1.76,1.57.03,1.11.06,2.21.09,3.32-.48.01-.97.03-1.45.06Z"/>
          <path class="cls-3" d="m76.12,15.94c-.03.4-.07.81-.1,1.21-1.52-.12-3.05-.19-4.58-.19,0-2.25.02-4.5.02-6.75,1.64,0,3.27.07,4.9.2-.03.4-.06.8-.09,1.2-1.06-.08-2.13-.14-3.2-.17-.02.53-.03,1.06-.04,1.58.98.03,1.96.08,2.94.15-.03.39-.06.78-.09,1.17-.96-.07-1.92-.12-2.88-.15-.01.52-.03,1.05-.04,1.57,1.05.03,2.11.09,3.16.17Z"/>
          <path class="cls-3" d="m79.28,17.5c.14-1.02.28-2.03.42-3.05.07-.52-.12-.77-.6-.83-.42-.05-.86.11-1.08.26-.12,1.14-.25,2.28-.37,3.42-.48-.05-.96-.1-1.44-.14.14-1.61.27-3.23.41-4.84.46.04.92.08,1.39.13.01.16.02.33.03.49.42-.28,1.05-.48,1.78-.38,1.19.16,1.62.78,1.44,1.87-.18,1.09-.35,2.18-.53,3.28-.48-.08-.96-.15-1.44-.21Z"/>
          <path class="cls-3" d="m85.49,13.89c.26-.31.65-.61,1.15-.49.13.03.27.1.41.19-.08.3-.15.6-.23.89-.31-.11-.57-.15-.88-.14.23.38.27.78.17,1.16-.27,1.06-1.33,1.46-2.62,1.2-.34-.07-.56-.14-.82-.27-.1.07-.22.14-.24.26-.03.14.04.24.41.33.47.12.94.25,1.4.38,1.05.3,1.57.8,1.33,1.75-.3,1.16-1.48,1.32-2.87,1.04-1.74-.35-2.22-.86-2.11-1.53.07-.45.47-.71,1.03-.71,0-.01,0-.02,0-.04-.46-.22-.65-.54-.59-.93.08-.48.43-.7.97-.93-.41-.33-.63-.82-.53-1.42.16-1.02,1.14-1.64,2.68-1.34.58.12,1.05.31,1.34.59Zm-1.87,4.69c-.45-.12-.9-.24-1.35-.36-.2.09-.34.23-.38.4-.07.38.44.58,1.09.71.62.13,1.06.13,1.15-.26.04-.18-.02-.37-.52-.5Zm.39-4.3c-.54-.11-1,.02-1.1.53-.09.48.15.78.78.91.53.11.95-.07,1.06-.54.11-.49-.18-.8-.74-.91Z"/>
          <path class="cls-3" d="m87.87,13.62c-.59-.16-.85-.55-.72-1.07.13-.52.55-.74,1.16-.58.6.16.87.56.72,1.08-.15.52-.58.73-1.16.57Zm-2.12,5.12c.4-1.57.79-3.14,1.19-4.71.51.13,1.02.26,1.53.4-.43,1.56-.87,3.12-1.3,4.68-.47-.13-.94-.25-1.41-.37Z"/>
          <path class="cls-3" d="m90.55,20.17c.33-.97.67-1.94,1-2.91.17-.49.03-.78-.43-.93-.4-.13-.87-.06-1.12.04-.34,1.09-.69,2.19-1.03,3.28-.47-.15-.93-.28-1.4-.42l1.34-4.67c.45.13.9.26,1.35.4-.02.16-.04.33-.06.49.47-.19,1.13-.26,1.83-.02,1.15.39,1.45,1.08,1.06,2.12-.39,1.04-.77,2.07-1.16,3.11-.46-.17-.92-.33-1.38-.49Z"/>
          <path class="cls-3" d="m92.93,18.46c.61-1.64,2.02-1.97,3.39-1.39,1.54.66,1.79,1.78,1.22,3-.07.14-.21.42-.3.56-.97-.45-1.95-.88-2.94-1.28-.27.76-.05,1.16.55,1.42.49.21.79.04,1.05-.3.35.26.7.52,1.04.79-.56.74-1.49.94-2.6.47-1.72-.72-1.87-2.04-1.42-3.28Zm2.92-.48c-.41-.17-.92-.1-1.19.56.51.21,1.02.42,1.53.64.28-.64.13-1-.34-1.2Z"/>
          <path class="cls-3" d="m97.4,20.34c.73-1.59,2.18-1.8,3.51-1.11,1.5.79,1.66,1.93.99,3.1-.08.14-.24.4-.34.54-.94-.53-1.89-1.04-2.85-1.52-.33.73-.14,1.16.44,1.46.48.25.79.11,1.08-.21.33.29.66.58.98.88-.62.69-1.57.82-2.65.26-1.67-.86-1.72-2.19-1.17-3.39Zm2.97-.24c-.4-.21-.91-.17-1.24.46.5.25.99.51,1.49.77.33-.62.21-.99-.25-1.23Z"/>
          <path class="cls-3" d="m103.66,22.86c-.54.9-1.09,1.79-1.63,2.69-.43-.26-.86-.51-1.29-.76.8-1.4,1.61-2.81,2.41-4.21.4.23.8.46,1.19.7-.1.24-.2.48-.29.72.56-.21,1.22-.27,1.95.19.07.05.15.1.23.16-.25.38-.5.77-.75,1.15-.57-.44-1.26-.67-1.82-.63Z"/>
          <path class="cls-3" d="m103.81,25.28c.42.11.84.23,1.25.35-.11.39-.14.8.46,1.21.42.3.75.33.93.08.22-.3-.07-.63-.51-1.06-.62-.61-1.43-1.35-.79-2.34.57-.9,1.76-.75,2.8-.02,1.05.74,1.33,1.56,1.05,2.37-.41-.17-.82-.33-1.24-.49.14-.41.12-.79-.36-1.13-.44-.31-.73-.27-.89-.04-.21.32.11.63.61,1.11.66.64,1.36,1.41.67,2.32-.67.88-1.79.68-2.85-.05-1.09-.75-1.43-1.53-1.14-2.31Z"/>
          <path class="cls-3" d="m112.95,29.31c-.05-.02-.1-.04-.15-.06-.02.66,0,1.31.05,2.06.44-.13.83-.44,1.18-.81.35.33.7.66,1.05,1-.46.5-1.11.91-1.94,1,.08.25.21.48.4.67.09.09.2.17.32.24-.21.29-.42.58-.63.87-.26-.13-.5-.32-.71-.5-.41-.4-.66-.86-.83-1.4-.49-.07-1.13-.39-1.82-.98-1.28-1.1-1.45-2.29-.79-3.14.55-.7,1.31-.86,2.38-.48.04-.47.18-.81.42-1.11.67-.83,1.9-.68,2.95.25.76.67,1.25,1.6.57,2.32-.38.41-1.02.65-2.46.08Zm-1.53,1.88c-.13-.8-.13-1.54-.09-2.42-.29-.02-.61.03-.9.38-.37.45-.33,1.08.31,1.63.22.19.44.33.68.4Zm1.53-2.84c.46.15,1.01.38,1.37-.02.19-.21.17-.51-.14-.78-.29-.26-.67-.31-.91-.03-.18.21-.27.48-.32.83Z"/>
        </g>
        <g>
          <path class="cls-3" d="m33.6,100.71c-.37.41.01.98.47,1.61.61.84,1.34,1.81.55,2.83-.85,1.11-2.26.72-3.38-.24-1.01-.86-1.81-2.09-.8-3.35.38.28.76.55,1.15.81-.31.52-.45,1.08.36,1.77.49.42,1.04.63,1.4.19.34-.42-.07-.96-.54-1.59-.63-.86-1.35-1.89-.42-2.87.82-.87,2.07-.61,3.08.25.9.77,1.53,1.69.71,2.91-.38-.24-.75-.48-1.12-.72.32-.49.34-.92-.26-1.43-.52-.45-.94-.46-1.2-.17Z"/>
          <path class="cls-3" d="m34.96,105.04c.94-1.2,2.18-1.32,3.45-.41.95.67,1.25,1.57.74,2.54-.39-.19-.78-.38-1.16-.58.27-.49.28-.85-.17-1.17-.44-.31-.94-.39-1.55.44-.61.83-.51,1.34.01,1.71.47.33.85.29,1.24-.12.3.29.61.57.91.86-.75.84-1.81.74-2.82.03-1.43-1.02-1.46-2.26-.66-3.29Z"/>
          <path class="cls-3" d="m41.27,105.95c-.45-.28-.55-.69-.28-1.11.27-.42.67-.49,1.1-.22.43.27.54.66.29,1.09-.26.42-.67.51-1.11.24Zm-3.3,3.85c.8-1.25,1.6-2.49,2.4-3.74.39.25.78.5,1.18.74-.77,1.26-1.54,2.53-2.31,3.79-.43-.26-.85-.53-1.27-.8Z"/>
          <path class="cls-3" d="m40.8,108.95c.83-1.37,2.1-1.45,3.22-.84,1.26.68,1.44,1.67.9,2.78-.06.13-.2.38-.28.51-.9-.45-1.79-.92-2.67-1.42-.34.65-.16,1.06.4,1.37.46.25.76.12,1.02-.17.32.27.64.53.97.79-.53.66-1.46.8-2.54.21-1.68-.92-1.63-2.21-1.01-3.24Zm2.71-.06c-.35-.19-.81-.17-1.13.38.44.25.89.49,1.34.73.3-.57.19-.9-.21-1.12Z"/>
          <path class="cls-3" d="m47.11,114.63c.37-.86.73-1.73,1.1-2.59.19-.44.08-.71-.32-.88-.35-.15-.77-.13-1-.07-.44.95-.87,1.91-1.31,2.86-.45-.21-.89-.42-1.34-.63.65-1.33,1.3-2.66,1.95-3.99.37.18.73.35,1.1.52-.04.14-.08.29-.12.43.44-.13,1.01-.13,1.6.12.95.41,1.2,1.02.82,1.96-.37.94-.75,1.88-1.12,2.82-.46-.18-.91-.37-1.36-.56Z"/>
          <path class="cls-3" d="m50.83,116.18c-1-.35-1.37-.95-1.01-1.9.26-.67.51-1.35.77-2.02-.22-.08-.45-.17-.67-.26.11-.29.23-.58.34-.87.22.09.44.17.66.25.16-.41.31-.82.47-1.23.44.1.87.2,1.31.3-.16.47-.33.93-.49,1.4.39.14.78.27,1.18.4-.1.3-.19.59-.29.89-.4-.13-.8-.27-1.2-.41-.22.62-.44,1.25-.66,1.87-.13.37-.08.6.35.75.27.09.63.1.84.07-.03.31-.06.62-.09.93-.28.06-.9.04-1.51-.17Z"/>
          <path class="cls-3" d="m54.68,112.05c-.49-.15-.69-.52-.53-.99.15-.47.51-.65.99-.5.47.14.68.49.54.97-.14.47-.51.67-.99.52Zm-2.17,4.58c.45-1.41.9-2.82,1.35-4.23.43.14.86.27,1.3.39-.41,1.42-.83,2.84-1.24,4.26-.47-.14-.93-.28-1.4-.43Z"/>
          <path class="cls-3" d="m54.55,116.13c.4,0,.81-.02,1.21-.04.02.37.13.74.79.9.47.12.77.03.83-.25.08-.33-.28-.51-.79-.73-.72-.32-1.63-.74-1.33-1.78.27-.93,1.26-1.14,2.27-.89,1.02.25,1.5.8,1.57,1.58-.38.02-.76.04-1.15.06-.02-.4-.16-.7-.64-.82-.44-.11-.67.02-.73.26-.09.34.27.5.83.74.74.32,1.58.67,1.37,1.69-.2.98-1.26,1.27-2.47.97-1.25-.31-1.8-.93-1.75-1.68Z"/>
          <path class="cls-3" d="m60.71,118.73c-1.04-.18-1.5-.71-1.3-1.7.14-.71.28-1.42.42-2.12-.23-.05-.46-.09-.69-.14.06-.31.13-.61.19-.92.23.05.46.09.68.14.09-.43.17-.86.26-1.29.44.03.88.05,1.33.07-.08.49-.17.97-.25,1.46.4.07.81.14,1.22.2-.05.31-.09.62-.14.93-.41-.06-.82-.13-1.24-.2-.11.65-.23,1.3-.34,1.96-.07.39.02.61.47.68.28.05.63,0,.84-.08.02.31.04.62.06.93-.27.11-.87.19-1.5.08Z"/>
          <path class="cls-3" d="m62.23,117.78c.4-.06.79-.13,1.19-.2.07.36.22.72.89.79.48.05.76-.07.79-.35.03-.34-.34-.47-.88-.63-.76-.22-1.7-.52-1.54-1.59.15-.96,1.09-1.29,2.12-1.18,1.04.11,1.58.6,1.75,1.36-.37.07-.75.14-1.12.21-.07-.39-.24-.67-.74-.73-.45-.05-.66.1-.69.35-.04.35.33.46.91.63.77.22,1.65.46,1.57,1.49-.07,1-1.08,1.42-2.32,1.28-1.28-.15-1.89-.68-1.94-1.44Z"/>
          <path class="cls-3" d="m74.57,119.4c-.54.03-1.08.05-1.62.07-.21-.49-.41-.99-.61-1.48-.75.02-1.51.02-2.26,0-.18.5-.37.99-.56,1.49-.51-.01-1.02-.03-1.53-.06.86-2.02,1.65-4.05,2.35-6.1.55,0,1.11,0,1.66,0,.77,2.04,1.63,4.07,2.56,6.08Zm-3.42-4.83c-.26.8-.53,1.59-.82,2.38.56,0,1.12,0,1.68,0-.29-.79-.57-1.58-.83-2.38-.01,0-.02,0-.04,0Z"/>
          <path class="cls-3" d="m74.41,118.33c.38-.14.75-.28,1.12-.43.14.34.36.66,1.04.6.48-.04.73-.22.7-.51-.04-.34-.43-.39-.98-.44-.79-.07-1.77-.17-1.83-1.25-.05-.97.81-1.49,1.84-1.58,1.04-.1,1.67.27,1.99.98-.35.15-.7.29-1.06.43-.15-.37-.37-.61-.87-.56-.45.04-.62.23-.6.48.03.35.42.39,1.02.43.8.06,1.71.12,1.84,1.15.13,1-.77,1.61-2.01,1.72-1.28.11-1.99-.29-2.19-1.02Z"/>
          <path class="cls-3" d="m78.73,117.94c.37-.17.73-.34,1.09-.51.16.33.41.63,1.08.52.48-.08.72-.27.66-.55-.06-.34-.46-.36-1.02-.36-.79,0-1.78-.04-1.92-1.11-.12-.96.7-1.54,1.73-1.71,1.04-.17,1.69.14,2.06.84-.34.17-.68.34-1.03.51-.18-.36-.42-.58-.91-.5-.45.07-.61.28-.57.52.05.34.44.36,1.05.36.8,0,1.71,0,1.92,1.01.2.98-.66,1.66-1.89,1.86-1.27.21-2.01-.15-2.26-.86Z"/>
          <path class="cls-3" d="m82.9,116.11c-.28-1.4.3-2.43,1.87-2.82,1.56-.39,2.42.3,2.8,1.57.41,1.38-.04,2.52-1.81,2.96-1.78.43-2.6-.42-2.86-1.71Zm3.27-.82c-.25-.94-.61-1.19-1.2-1.05-.6.15-.85.58-.64,1.52.22.96.58,1.29,1.26,1.12.61-.15.84-.59.57-1.59Z"/>
          <path class="cls-3" d="m87.84,114.93c-.43-1.47.17-2.53,1.6-3.01,1.06-.36,1.96-.07,2.44.9-.37.2-.74.4-1.12.59-.24-.5-.51-.73-1.02-.55-.49.17-.84.52-.52,1.5.32.98.78,1.2,1.36,1,.53-.18.71-.51.6-1.07.4-.07.8-.15,1.2-.23.24,1.1-.44,1.9-1.57,2.28-1.61.54-2.6-.16-2.96-1.42Z"/>
          <path class="cls-3" d="m92.11,110.4c-.48.19-.86.03-1.04-.43-.18-.46-.01-.83.46-1.01.46-.19.84-.04,1.03.41.19.45.02.84-.45,1.03Zm1.19,4.93c-.54-1.38-1.08-2.76-1.61-4.14.42-.17.85-.34,1.27-.51.57,1.37,1.14,2.73,1.71,4.1-.45.19-.91.37-1.37.55Z"/>
          <path class="cls-3" d="m98.99,111.9c.08-.04.15-.1.24-.19.13.21.25.43.38.64-.13.17-.48.44-.76.59-.53.27-.91.29-1.19-.04-.13.47-.48.87-1.13,1.16-1.16.53-1.68-.07-1.85-.48-.52-1.25.81-2.04,1.94-2.59-.02-.05-.05-.1-.07-.15-.22-.45-.42-.69-.97-.43-.42.2-.5.43-.41.86-.39.1-.78.2-1.17.29-.19-.83.13-1.49,1.29-2.04,1.14-.54,1.91-.43,2.42.55.28.55.57,1.1.85,1.65.11.21.2.28.42.16Zm-3.06.91c.11.23.32.39.74.19.32-.15.55-.43.63-.62-.11-.24-.23-.47-.34-.71-.07.03-.14.07-.21.1-.61.31-1.01.62-.82,1.03Z"/>
          <path class="cls-3" d="m101.6,111.46c-.94.54-1.64.43-2.12-.47-.34-.64-.69-1.27-1.03-1.91-.21.11-.43.23-.64.34-.14-.28-.29-.55-.43-.83.21-.11.42-.22.63-.33-.21-.39-.42-.77-.62-1.16.37-.26.73-.53,1.1-.8.25.43.49.86.74,1.29.37-.21.73-.42,1.09-.64.16.27.32.54.48.8-.37.22-.74.44-1.11.65.33.57.66,1.15.99,1.72.19.34.41.46.81.22.25-.15.5-.42.62-.6.22.22.43.45.65.67-.14.26-.58.72-1.14,1.04Z"/>
          <path class="cls-3" d="m101.04,105.82c-.45.28-.86.19-1.11-.23-.26-.42-.15-.81.28-1.09.43-.27.83-.2,1.1.21.27.41.17.83-.27,1.11Zm2.04,4.65c-.77-1.26-1.55-2.52-2.32-3.78.4-.24.79-.49,1.18-.74.81,1.24,1.61,2.48,2.42,3.73-.42.27-.84.54-1.27.8Z"/>
          <path class="cls-3" d="m103.54,107.56c-.78-1.2-.6-2.38.76-3.37,1.35-.99,2.44-.69,3.26.34.9,1.13.88,2.38-.65,3.49-1.55,1.11-2.64.64-3.36-.47Zm2.83-2.06c-.58-.78-1.02-.87-1.53-.5-.52.38-.61.88-.06,1.67.56.81,1.02.97,1.62.54.53-.39.59-.88-.03-1.71Z"/>
          <path class="cls-3" d="m111.79,103.97c-.62-.7-1.25-1.4-1.87-2.1-.32-.36-.61-.37-.95-.07-.3.26-.47.66-.52.91.68.8,1.35,1.6,2.03,2.4-.39.33-.79.66-1.19.97-.92-1.16-1.85-2.31-2.77-3.47.33-.26.65-.53.98-.8.11.1.23.19.34.29.09-.46.34-.99.84-1.44.81-.72,1.49-.7,2.19.03.69.74,1.38,1.47,2.08,2.21-.38.35-.76.7-1.14,1.05Z"/>
        </g>
        <ellipse class="cls-2" cx="61.29" cy="53.21" rx="3.72" ry="8.36"/>
        <path class="cls-2" d="m83.4,53.21c0,4.62-1.67,8.36-3.72,8.36s-3.72-3.74-3.72-8.36,1.67-8.36,3.72-8.36,3.72,3.74,3.72,8.36Z"/>
        <path class="cls-2" d="m43.84,74.96c15.88,11.95,39.28,11.36,54.83-.85,2.02-1.58-.82-4.39-2.82-2.82-14.22,11.16-35.67,11-50,.22-2.05-1.54-4.04,1.92-2.01,3.44h0Z"/>
        <path class="cls-2" d="m44.19,65.96c.11,1.53-.26,3.15-1.15,4.42-1.34,1.91-4.18,2.79-5.82,2.56-2.28-.31-3.26,3.17-.96,3.49,6.23.86,12.02-4,11.54-10.46-.17-2.31-3.79-2.33-3.62,0h0Z"/>
        <path class="cls-2" d="m105.57,71.32c-3.94,1.61-8.18-.57-8.97-4.78-.43-2.28-3.91-1.32-3.49.96,1.12,6.01,7.75,9.62,13.42,7.3,2.12-.87,1.19-4.37-.96-3.49h0Z"/>
      </g>
    </g>
  </g>
</svg>