<?xml version="1.0" encoding="UTF-8"?>
<svg id="Layer_2" data-name="Layer 2" xmlns="http://www.w3.org/2000/svg" xmlns:xlink="http://www.w3.org/1999/xlink" viewBox="0 0 137.75 137.69">
  <defs>
    <style>
      .cls-1 {
        stroke-width: 2.85px;
      }

      .cls-1, .cls-2, .cls-3, .cls-4 {
        stroke: #be202e;
        stroke-linecap: round;
        stroke-linejoin: round;
      }

      .cls-1, .cls-5, .cls-4 {
        fill: #fff;
      }

      .cls-6 {
        clip-path: url(#clippath);
      }

      .cls-7, .cls-2, .cls-3 {
        fill: none;
      }

      .cls-7, .cls-8, .cls-9, .cls-5 {
        stroke-width: 0px;
      }

      .cls-2 {
        stroke-width: .75px;
      }

      .cls-10 {
        clip-path: url(#clippath-1);
      }

      .cls-3 {
        stroke-width: 2.74px;
      }

      .cls-8 {
        fill: #be222f;
      }

      .cls-9 {
        fill: #be202e;
      }

      .cls-4 {
        stroke-width: 3.42px;
      }
    </style>
    <clipPath id="clippath">
      <polygon class="cls-7" points="23.4 126.92 23.4 126.92 17.37 120.89 12.04 120.89 20.73 129.58 23.4 129.58 23.4 126.92"/>
    </clipPath>
    <clipPath id="clippath-1">
      <polygon class="cls-7" points="28.63 109.63 28.63 109.63 17.37 120.89 12.04 120.89 25.97 106.97 28.63 106.97 28.63 109.63"/>
    </clipPath>
  </defs>
  <g id="Layer_1-2" data-name="Layer 1">
    <g>
      <rect class="cls-4" x="1.77" y="1.71" width="134.27" height="134.27"/>
      <path class="cls-3" d="m111.23,57.64c.24-3.5,1.3-6,2.16-7.55.29-.53,2.58-4.53,7.49-7.03.19-.1,2.18-1.08,5.28-1.32,1.77-.14,2.67.07,3.48.48.98.5,1.94,1.39,2.35,2.41.52,1.3,0,2.41-.91,2.84-.95.45-2.02.37-3.6.37-2.24,0-3.19.68-5.34,2.7-.27.25-1.46,1.39-2.25,2.57-2.73,4.05-1.85,10.15-2.38,18.83-.35,5.7-1.02,7.85-2.34,9.78"/>
      <g>
        <path class="cls-5" d="m111.35,80.24c5.18-22.63-6.19-46.32-17.69-54.27,1.46-7.83.78-13.87-1.14-14.51-1.86-.62-5.56,3.61-8.59,10.74-2.05-.32-4.21-.42-6.4-.24-1.32-6.5-3.6-10.84-5.39-10.81-2.03.03-4.24,5.66-4.64,13.91-6.72,3.8-13.31,11.23-12.02,19.29.74,4.65,3.84,7.87,5.75,9.51"/>
        <path class="cls-9" d="m112.73,80.62c3.67-16.37-.4-34.87-10.59-48.22-2.22-2.91-4.75-5.56-7.75-7.66l.66,1.61c.64-3.53,1.11-7.21.7-10.79-.21-1.88-.65-4.76-2.78-5.45-1.92-.62-3.76,1.05-4.93,2.37-2.32,2.62-3.96,5.81-5.33,9l1.61-.66c-2.26-.34-4.5-.46-6.78-.29l1.38,1.05c-.65-3.13-1.51-6.44-3.22-9.19-.96-1.55-2.58-3.27-4.57-2.45-1.85.77-2.74,3.09-3.34,4.84-1.12,3.28-1.53,6.83-1.71,10.27l.71-1.23c-5.6,3.22-10.91,8.42-12.45,14.89s1.23,12.09,5.89,16.14c1.38,1.2,3.4-.81,2.02-2.02-2.9-2.52-5.26-5.88-5.48-9.84-.25-4.48,2.07-8.6,5.08-11.76,1.52-1.6,3.23-3,5.1-4.19,1.01-.64,1.89-.93,1.99-2.24s.19-2.69.38-4.04c.29-2,.71-4.05,1.46-5.93.22-.56.49-1.14.83-1.63.11-.16.22-.31.35-.45.17-.18.29-.29.2-.19.06-.07-.08-.02-.09-.03.13.14.32.23.47.37.53.53.9,1.24,1.24,1.9,1.19,2.34,1.84,4.96,2.38,7.51.12.57.79,1.09,1.38,1.05,2.01-.15,4.02-.11,6.02.18.57.08,1.35-.04,1.61-.66,1.15-2.67,2.47-5.36,4.26-7.67.53-.68,1.12-1.39,1.81-1.92.15-.12.57-.39.62-.41.3-.14.27-.07.23-.09-.18-.09,0,0,.04.09.11.24.25.46.34.72.33.91.44,1.91.5,2.87.2,3.04-.14,6.1-.68,9.09-.12.68.1,1.22.66,1.61,5.24,3.67,9.05,9.3,11.89,14.94,3.61,7.15,5.8,15.1,6.28,23.09.3,4.91-.06,9.83-1.13,14.63-.4,1.79,2.35,2.55,2.75.76h0Z"/>
      </g>
      <ellipse class="cls-9" cx="68.67" cy="36.39" rx="2.75" ry="3.29"/>
      <ellipse class="cls-9" cx="84.02" cy="36.39" rx="3.29" ry="2.75" transform="translate(30.86 110.94) rotate(-77.92)"/>
      <path class="cls-9" d="m71.43,42.99c-.17-.49,1.36-1.52,2.95-1.49,1.42.03,2.79.89,2.65,1.36-.13.44-1.63.52-2.44.56-.29.02-2.96.15-3.16-.43Z"/>
      <path class="cls-9" d="m49.24,43.99c3.41-2.35,7.63-3.09,11.65-1.91,1.76.52,2.52-2.23.76-2.75-4.68-1.37-9.83-.57-13.84,2.2-.63.44-.92,1.25-.51,1.95.37.63,1.31.95,1.95.51h0Z"/>
      <path class="cls-9" d="m50.44,51.43c1.27-1.42,2.54-2.42,4.25-3.27,2.06-1.03,4.35-1.44,6.63-1.33.77.04,1.43-.68,1.43-1.43,0-.8-.65-1.39-1.43-1.43-4.86-.23-9.67,1.81-12.9,5.44-.51.58-.57,1.45,0,2.02.52.52,1.5.58,2.02,0h0Z"/>
      <path class="cls-9" d="m90.69,43.71c1.91-.57,3.66-.77,5.72-.51,1.04.13,2.11.38,3.11.69.15.05.3.11.45.16-.37-.13.07.04.17.09.29.16.56.34.84.53.64.44,1.58.12,1.95-.51.41-.71.13-1.51-.51-1.95-1.7-1.16-3.78-1.58-5.79-1.83-2.23-.28-4.53-.07-6.69.58-1.75.53-1.01,3.28.76,2.75h0Z"/>
      <path class="cls-9" d="m88.95,49.56c.16-.03.33-.06.49-.09.08-.01.17-.03.25-.04.22-.03-.22.02.03,0,.48-.05.95-.09,1.43-.1,1.14-.03,2.26.08,3.37.34,1.17.28,2.29.69,3.34,1.27.47.26.92.54,1.36.84.17.12.34.24.5.36-.15-.11.04.03.09.08.08.07.16.13.24.2.59.49,1.44.58,2.02,0,.51-.51.59-1.52,0-2.02-3.88-3.25-8.92-4.56-13.89-3.59-.76.15-1.19,1.05-1,1.75.22.79,1,1.14,1.75,1h0Z"/>
      <g>
        <g>
          <g class="cls-6">
            <g>
              <rect class="cls-8" x="19.43" y="121.1" width=".94" height="9.98" transform="translate(-83.33 51) rotate(-45)"/>
              <polygon class="cls-8" points="13.42 118.28 24.1 128.95 24.43 128.62 24.76 128.29 14.09 117.61 13.42 118.28"/>
              <rect class="cls-8" x="13.93" y="118.26" width=".94" height="4.64" transform="translate(-81.05 45.5) rotate(-45)"/>
              <polygon class="cls-8" points="11.28 120.13 22.1 130.95 22.76 130.28 12.09 119.61 11.28 120.13"/>
            </g>
          </g>
          <g class="cls-10">
            <g>
              <polygon class="cls-8" points="13.76 123.84 14.09 124.17 17.37 120.89 16.7 120.23 13.42 123.51 13.76 123.84"/>
              <polygon class="cls-8" points="17.04 119.89 17.37 120.23 17.7 120.56 22.92 115.35 22.25 114.68 17.04 119.89"/>
              <polygon class="cls-8" points="12.42 122.51 12.76 122.84 13.09 123.17 21.92 114.35 21.25 113.68 12.42 122.51"/>
              <polygon class="cls-8" points="15.04 117.89 15.38 118.22 15.71 118.56 20.92 113.35 20.59 113.01 20.25 112.68 15.04 117.89"/>
              <polygon class="cls-8" points="23.25 115.01 30 108.27 29.66 107.93 29.33 107.6 22.58 114.35 23.25 115.01"/>
              <polygon class="cls-8" points="22.25 114.01 29 107.27 28.66 106.93 28.33 106.6 21.59 113.35 22.25 114.01"/>
              <polygon class="cls-8" points="20.59 112.35 21.25 113.01 28 106.27 27.67 105.93 27.33 105.6 20.59 112.35"/>
              <polygon class="cls-8" points="14.71 118.22 11.42 121.51 11.76 121.84 12.09 122.17 15.38 118.89 14.71 118.22"/>
            </g>
          </g>
        </g>
        <g>
          <path class="cls-8" d="m22.38,123.9v-3.01h6.58v3.01h-6.58Z"/>
          <path class="cls-8" d="m32.35,129.59h-3.72v-17.58h6.65c4.49,0,5.85,2.7,5.85,5.49,0,4.23-2.31,6.41-6.87,6.41h-1.92v5.68Zm1.51-8.69c1.92,0,3.45-.56,3.45-3.13,0-2.26-1.33-2.74-3.16-2.74h-1.8v5.88h1.51Z"/>
          <path class="cls-8" d="m45.52,126.43h7.85v3.16h-11.58v-17.58h11.15v3.13h-7.41v4.13h6.97v3.06h-6.97v4.1Z"/>
          <path class="cls-8" d="m65.8,129.59h-3.67v-8.02c0-1.36-.53-1.94-1.68-1.94-1,0-1.99.56-2.48,1v8.96h-3.67v-12.65h3.25l.19,1.26c.92-.85,2.31-1.53,4.03-1.53,2.79,0,4.01,1.38,4.01,4.27v8.65Z"/>
          <path class="cls-8" d="m70.79,116.45c0,3.67,9.13,1.41,9.13,7.87,0,3.98-3.23,5.56-6.73,5.56-3.16,0-6.49-1.02-6.8-5.59l3.4-.51c.29,1.7.92,3.13,3.5,3.13,1.55,0,2.91-.53,2.91-2.16,0-3.67-9.16-1.12-9.16-7.77,0-3.42,2.87-5.3,6.41-5.3,3.13,0,6,.97,6.27,5.15l-3.42.39c-.15-1.65-.83-2.65-2.89-2.65-1.8,0-2.62.75-2.62,1.87Z"/>
          <path class="cls-8" d="m89.67,112l6.22,17.58h-4.1l-1.46-4.27h-5.85l-1.36,4.27h-3.86l5.76-17.58h4.66Zm-2.31,3.52h-.1l-2.16,6.8h4.44l-2.19-6.8Z"/>
        </g>
        <path class="cls-8" d="m11.86,124.07v5.51h-3.72v-17.58h3.72v7.53"/>
      </g>
      <path class="cls-9" d="m.97,46.2c4.47,1.45,8.94,2.89,13.41,4.34l32.19,10.42c12.98,4.2,25.96,8.4,38.94,12.6,11.21,3.63,22.43,7.26,33.64,10.89l11.07,3.58c1.74.56,3.47,1.22,5.23,1.69.07.02.15.05.22.07,1.72.56,2.45-2.14.74-2.7-4.47-1.45-8.94-2.89-13.41-4.34-10.73-3.47-21.46-6.95-32.19-10.42-12.98-4.2-25.96-8.4-38.94-12.6l-33.64-10.89c-3.69-1.19-7.38-2.39-11.07-3.58-1.74-.56-3.47-1.22-5.23-1.69-.07-.02-.15-.05-.22-.07-1.72-.56-2.45,2.14-.74,2.7h0Z"/>
      <g>
        <path class="cls-5" d="m61.23,55.32c-4.64,4.65-8.11,7.88-10.87,10.31-1.03.9-2.72,2.36-2.22,3.87.49,1.49,2.91,2.38,4.69,2.58,3.23.36,12.49-3.42,14.62-6.33"/>
        <path class="cls-9" d="m60.09,54.18c-2.65,2.66-5.34,5.28-8.11,7.82-1.03.95-2.08,1.87-3.12,2.81-1.26,1.14-2.55,2.61-2.39,4.43.27,3.11,4.47,4.58,7.14,4.45s5.41-1.16,7.88-2.22c2.66-1.14,5.57-2.56,7.35-4.92.53-.69.11-1.8-.58-2.2-.83-.48-1.68-.12-2.2.58.19-.25-.19.19-.24.24-.14.14-.29.28-.44.41-.36.31-.68.53-1.1.81-1.01.66-2.08,1.23-3.17,1.75-2.07.98-4.29,1.8-6.55,2.23-.65.12-1.44.18-2.27,0-.65-.15-2.42-.56-2.61-1.32-.22-.84,1.61-2.07,2.15-2.55.88-.78,1.76-1.57,2.63-2.38,2.7-2.49,5.33-5.05,7.92-7.65,1.47-1.47-.81-3.75-2.28-2.28h0Z"/>
      </g>
      <polyline class="cls-1" points="70.35 99.34 68.15 72.36 18.33 56.49 21.98 83.84 70.35 99.34 96.81 81.81 69.53 73.08"/>
      <polyline class="cls-2" points="70.11 80.24 81.91 83.81 71.42 90.9"/>
      <g>
        <path class="cls-5" d="m102.58,60c-1.58,4.28-6.81,13.08-11.61,16.69-4.5,3.38-6.69,3.62-8.1,3.53-.51-.03-3.57-.24-4.53-2.24-1.04-2.18,1.06-5.06,1.64-5.86,2.67-3.67,3.63-5.67,5.91-8.42"/>
        <path class="cls-9" d="m101.17,59.61c-1.09,2.91-2.74,5.66-4.45,8.25-1.95,2.95-4.17,5.9-7.06,7.99-1.98,1.43-4.36,3.04-6.74,2.92-.88-.04-1.99-.23-2.75-.82-1.23-.95-.45-2.65.18-3.74.94-1.62,2.14-3.09,3.17-4.65,1.09-1.64,2.15-3.3,3.4-4.82,1.18-1.44-.87-3.52-2.07-2.07-1.3,1.59-2.45,3.27-3.58,4.99s-2.37,3.24-3.39,4.96c-.95,1.59-1.7,3.62-1.08,5.47s2.29,2.86,4.06,3.31c2.55.64,4.93.12,7.23-1.09,3.84-2.02,6.82-5.03,9.39-8.47s4.96-7.35,6.5-11.45c.66-1.76-2.16-2.52-2.82-.78h0Z"/>
      </g>
      <polyline class="cls-2" points="67.72 84.65 73.62 86.49 76.01 84.96 70.11 83.13"/>
      <line class="cls-2" x1="71.23" y1="88.24" x2="73.62" y2="86.49"/>
      <line class="cls-2" x1="72.93" y1="84" x2="70.67" y2="85.57"/>
    </g>
  </g>
</svg>