<?xml version="1.0" encoding="UTF-8"?>
<svg id="Layer_2" data-name="Layer 2" xmlns="http://www.w3.org/2000/svg" xmlns:xlink="http://www.w3.org/1999/xlink" viewBox="0 0 139.12 139.06">
  <defs>
    <style>
      .cls-1 {
        stroke-miterlimit: 10;
      }

      .cls-1, .cls-2 {
        stroke-width: 2.88px;
      }

      .cls-1, .cls-2, .cls-3, .cls-4 {
        stroke: #242f65;
      }

      .cls-1, .cls-2, .cls-5, .cls-4 {
        fill: #fff;
      }

      .cls-6 {
        clip-path: url(#clippath);
      }

      .cls-7, .cls-3 {
        fill: none;
      }

      .cls-7, .cls-8, .cls-5 {
        stroke-width: 0px;
      }

      .cls-2, .cls-3, .cls-4 {
        stroke-linecap: round;
        stroke-linejoin: round;
      }

      .cls-9 {
        clip-path: url(#clippath-1);
      }

      .cls-3 {
        stroke-width: .75px;
      }

      .cls-8 {
        fill: #242f65;
      }

      .cls-4 {
        stroke-width: 3.45px;
      }
    </style>
    <clipPath id="clippath">
      <polygon class="cls-7" points="23.63 128.18 23.63 128.18 17.54 122.09 12.16 122.09 20.94 130.87 23.63 130.87 23.63 128.18"/>
    </clipPath>
    <clipPath id="clippath-1">
      <polygon class="cls-7" points="28.92 110.72 28.92 110.72 17.54 122.09 12.16 122.09 26.22 108.03 28.92 108.03 28.92 110.72"/>
    </clipPath>
  </defs>
  <g id="Layer_1-2" data-name="Layer 1">
    <g>
      <rect class="cls-4" x="1.79" y="1.73" width="135.61" height="135.61"/>
      <path class="cls-1" d="m111.15,59.07c.24-3.53,1.32-6.06,2.19-7.63.3-.53,2.61-4.57,7.56-7.1.19-.1,2.2-1.09,5.33-1.33,1.79-.14,2.7.07,3.51.48.99.51,1.96,1.4,2.37,2.43.53,1.32,0,2.43-.92,2.87-.96.46-2.04.37-3.63.38-2.26,0-3.22.69-5.39,2.73-.27.25-1.47,1.4-2.28,2.6-2.75,4.09-1.87,10.25-2.4,19.02-.35,5.76-1.03,7.93-2.36,9.88"/>
      <g>
        <path class="cls-5" d="m111.76,81.04c5.23-22.86-5.56-46.78-17.18-54.81,1.48-7.91.78-14.01-1.15-14.65-1.87-.62-5.62,3.64-8.67,10.85-2.07-.33-4.26-.42-6.46-.24-1.33-6.57-3.64-10.94-5.45-10.92-2.05.03-4.28,5.72-4.69,14.05-6.78,3.84-13.44,11.34-12.14,19.48.75,4.69,3.88,7.95,5.81,9.61"/>
        <path class="cls-8" d="m113.15,81.42c3.68-16.39.05-35.15-10.08-48.68-2.21-2.95-4.73-5.64-7.76-7.76l.66,1.63c.65-3.56,1.12-7.28.71-10.9-.21-1.9-.65-4.81-2.8-5.5-1.94-.63-3.8,1.06-4.98,2.39-2.34,2.64-4,5.87-5.38,9.09l1.63-.66c-2.28-.34-4.54-.46-6.84-.29l1.39,1.06c-.66-3.16-1.52-6.51-3.25-9.28-.97-1.56-2.61-3.31-4.62-2.47-1.87.78-2.77,3.12-3.37,4.88-1.14,3.31-1.54,6.89-1.73,10.38l.71-1.24c-5.63,3.24-10.95,8.45-12.55,14.94s1.2,12.29,5.93,16.41c1.39,1.21,3.44-.82,2.04-2.04-2.98-2.59-5.36-6.04-5.54-10.11-.19-4.44,2.13-8.53,5.1-11.67,1.55-1.64,3.3-3.08,5.21-4.29.89-.56,1.8-.86,1.98-2.01.21-1.35.18-2.75.37-4.11.29-2.05.71-4.12,1.45-6.06.24-.62.52-1.24.89-1.79.11-.16.22-.31.36-.45.15-.15.31-.31.2-.19.04-.05-.1-.07-.05-.02.02.02.33.25.43.36.54.53.91,1.26,1.25,1.92,1.2,2.36,1.86,5.01,2.4,7.59.12.58.79,1.1,1.39,1.06,2.03-.15,4.06-.11,6.08.19.57.09,1.36-.04,1.63-.66,1.16-2.7,2.5-5.41,4.3-7.75.53-.69,1.13-1.4,1.83-1.94.15-.12.58-.39.63-.42.3-.14.27-.07.23-.09-.18-.09,0,0,.04.09.11.25.25.47.34.72.34.92.44,1.93.51,2.9.2,3.07-.14,6.17-.69,9.18-.12.68.1,1.23.66,1.63,5.28,3.7,9.04,9.44,11.81,15.16,3.53,7.28,5.57,15.36,5.94,23.43.23,4.9-.16,9.8-1.24,14.59-.4,1.81,2.37,2.58,2.78.77h0Z"/>
      </g>
      <ellipse class="cls-8" cx="69.35" cy="36.75" rx="2.78" ry="3.32"/>
      <ellipse class="cls-8" cx="84.85" cy="36.75" rx="3.32" ry="2.78" transform="translate(31.16 112.04) rotate(-77.92)"/>
      <path class="cls-8" d="m72.14,43.42c-.17-.49,1.37-1.54,2.98-1.51,1.43.03,2.82.9,2.68,1.37-.13.45-1.65.53-2.46.57-.29.02-2.99.16-3.19-.44Z"/>
      <path class="cls-8" d="m49.72,44.43c3.44-2.38,7.71-3.12,11.76-1.93,1.78.52,2.54-2.26.77-2.78-4.72-1.39-9.93-.57-13.98,2.22-.64.44-.93,1.26-.52,1.97.37.63,1.33.96,1.97.52h0Z"/>
      <path class="cls-8" d="m50.94,51.94c1.28-1.44,2.56-2.44,4.29-3.31,2.08-1.04,4.39-1.45,6.7-1.35.78.04,1.44-.69,1.44-1.44,0-.81-.66-1.4-1.44-1.44-4.91-.23-9.77,1.82-13.03,5.5-.52.58-.57,1.46,0,2.04.53.53,1.52.58,2.04,0h0Z"/>
      <path class="cls-8" d="m91.59,44.14c1.93-.58,3.7-.78,5.78-.51,1.05.13,2.13.38,3.14.7.15.05.3.11.45.16-.38-.14.07.04.17.09.29.16.57.34.85.53.64.44,1.6.12,1.97-.52.42-.71.13-1.53-.52-1.97-1.71-1.17-3.81-1.6-5.85-1.85-2.25-.28-4.58-.07-6.75.59-1.77.53-1.02,3.31.77,2.78h0Z"/>
      <path class="cls-8" d="m89.83,50.05c.17-.03.33-.06.5-.09.08-.01.17-.03.25-.04.23-.03-.22.03.03,0,.48-.05.96-.09,1.45-.1,1.15-.03,2.28.08,3.4.34,1.18.28,2.31.7,3.38,1.28.47.26.93.54,1.37.85.17.12.34.24.5.37-.15-.11.04.03.1.08.08.07.17.14.25.2.6.5,1.45.58,2.04,0,.51-.51.6-1.53,0-2.04-3.91-3.29-9.01-4.6-14.03-3.63-.76.15-1.2,1.06-1.01,1.77.22.8,1.01,1.15,1.77,1.01h0Z"/>
      <g>
        <g>
          <g class="cls-6">
            <g>
              <rect class="cls-8" x="19.62" y="122.3" width=".95" height="10.08" transform="translate(-84.16 51.51) rotate(-45)"/>
              <polygon class="cls-8" points="13.56 119.45 24.34 130.23 24.67 129.89 25.01 129.56 14.23 118.78 13.56 119.45"/>
              <rect class="cls-8" x="14.06" y="119.44" width=".95" height="4.68" transform="translate(-81.85 45.95) rotate(-45)"/>
              <polygon class="cls-8" points="11.39 121.33 22.32 132.25 22.99 131.58 12.21 120.8 11.39 121.33"/>
            </g>
          </g>
          <g class="cls-9">
            <g>
              <polygon class="cls-8" points="13.89 125.07 14.23 125.4 17.54 122.09 16.87 121.42 13.56 124.73 13.89 125.07"/>
              <polygon class="cls-8" points="17.21 121.08 17.54 121.42 17.88 121.76 23.14 116.49 22.47 115.82 17.21 121.08"/>
              <polygon class="cls-8" points="12.55 123.72 12.88 124.06 13.22 124.4 22.14 115.48 21.46 114.81 12.55 123.72"/>
              <polygon class="cls-8" points="15.19 119.06 15.53 119.4 15.87 119.73 21.13 114.47 20.79 114.13 20.45 113.8 15.19 119.06"/>
              <polygon class="cls-8" points="23.48 116.15 30.29 109.34 29.96 109 29.62 108.67 22.81 115.48 23.48 116.15"/>
              <polygon class="cls-8" points="22.47 115.14 29.29 108.33 28.95 107.99 28.61 107.66 21.8 114.47 22.47 115.14"/>
              <polygon class="cls-8" points="20.79 113.46 21.46 114.13 28.28 107.32 27.94 106.98 27.6 106.65 20.79 113.46"/>
              <polygon class="cls-8" points="14.86 119.4 11.54 122.71 11.87 123.05 12.21 123.39 15.53 120.07 14.86 119.4"/>
            </g>
          </g>
        </g>
        <g>
          <path class="cls-8" d="m22.61,125.13v-3.04h6.65v3.04h-6.65Z"/>
          <path class="cls-8" d="m32.67,130.87h-3.75v-17.76h6.72c4.54,0,5.91,2.72,5.91,5.54,0,4.27-2.33,6.48-6.94,6.48h-1.94v5.74Zm1.52-8.78c1.94,0,3.48-.56,3.48-3.16,0-2.28-1.35-2.77-3.19-2.77h-1.81v5.94h1.52Z"/>
          <path class="cls-8" d="m45.97,127.68h7.92v3.19h-11.7v-17.76h11.26v3.16h-7.48v4.17h7.04v3.09h-7.04v4.15Z"/>
          <path class="cls-8" d="m66.46,130.87h-3.7v-8.09c0-1.37-.54-1.96-1.69-1.96-1.01,0-2.01.56-2.5,1.01v9.05h-3.7v-12.78h3.29l.2,1.28c.93-.86,2.33-1.54,4.07-1.54,2.82,0,4.05,1.4,4.05,4.32v8.73Z"/>
          <path class="cls-8" d="m71.49,117.6c0,3.7,9.22,1.42,9.22,7.95,0,4.02-3.26,5.62-6.79,5.62-3.19,0-6.55-1.03-6.87-5.64l3.43-.51c.29,1.72.93,3.16,3.53,3.16,1.57,0,2.94-.54,2.94-2.18,0-3.7-9.25-1.13-9.25-7.85,0-3.46,2.9-5.35,6.48-5.35,3.16,0,6.06.98,6.33,5.2l-3.46.39c-.15-1.67-.83-2.67-2.92-2.67-1.82,0-2.65.76-2.65,1.89Z"/>
          <path class="cls-8" d="m90.56,113.11l6.28,17.76h-4.15l-1.47-4.32h-5.91l-1.37,4.32h-3.9l5.81-17.76h4.71Zm-2.33,3.56h-.1l-2.18,6.87h4.49l-2.21-6.87Z"/>
        </g>
        <path class="cls-8" d="m11.97,125.3v5.57h-3.75v-17.76h3.75v7.6"/>
      </g>
      <path class="cls-8" d="m.98,46.66c4.53,1.47,9.07,2.94,13.6,4.4l32.42,10.49c13.1,4.24,26.2,8.48,39.31,12.72,11.33,3.67,22.65,7.33,33.98,11,5.48,1.77,10.94,3.81,16.49,5.34.08.02.16.05.24.08,1.73.56,2.48-2.17.75-2.72-4.53-1.47-9.07-2.94-13.6-4.4-10.81-3.5-21.61-7-32.42-10.49-13.1-4.24-26.2-8.48-39.31-12.72-11.33-3.67-22.65-7.33-33.98-11-5.48-1.77-10.94-3.81-16.49-5.34-.08-.02-.16-.05-.24-.08-1.73-.56-2.48,2.17-.75,2.72h0Z"/>
      <g>
        <path class="cls-5" d="m61.84,55.87c-4.69,4.7-8.19,7.96-10.98,10.41-1.04.91-2.74,2.39-2.25,3.9.49,1.5,2.94,2.41,4.74,2.6,3.27.36,12.61-3.45,14.76-6.39"/>
        <path class="cls-8" d="m60.69,54.72c-2.68,2.68-5.4,5.33-8.19,7.9-1.04.96-2.1,1.89-3.15,2.83-1.28,1.15-2.58,2.64-2.42,4.48.27,3.14,4.51,4.62,7.21,4.5s5.46-1.17,7.96-2.25c2.69-1.15,5.62-2.59,7.43-4.97.53-.7.11-1.82-.58-2.22-.83-.49-1.69-.12-2.22.58.19-.25-.19.2-.24.25-.14.14-.29.28-.44.41-.36.31-.68.53-1.11.81-1.02.67-2.1,1.24-3.2,1.76-2.09.99-4.33,1.82-6.61,2.25-.65.12-1.45.19-2.29,0-.66-.15-2.44-.57-2.64-1.34-.22-.85,1.63-2.09,2.17-2.57.89-.79,1.78-1.59,2.65-2.4,2.73-2.51,5.38-5.1,8-7.73,1.48-1.48-.82-3.78-2.3-2.3h0Z"/>
      </g>
      <polyline class="cls-2" points="71.05 100.32 68.82 73.08 18.51 57.05 22.2 84.67 71.05 100.32 97.77 82.62 70.22 73.8"/>
      <polyline class="cls-3" points="70.81 81.04 82.72 84.64 72.13 91.8"/>
      <g>
        <path class="cls-5" d="m103.6,60.6c-1.6,4.32-6.87,13.21-11.73,16.86-4.54,3.41-6.76,3.66-8.18,3.56-.52-.03-3.6-.24-4.57-2.27-1.05-2.2,1.07-5.11,1.66-5.92,2.7-3.7,3.67-5.72,5.97-8.5"/>
        <path class="cls-8" d="m102.18,60.2c-1.11,2.94-2.77,5.72-4.49,8.33-1.96,2.97-4.21,5.96-7.13,8.07-2,1.45-4.41,3.07-6.81,2.95-.89-.04-2.01-.23-2.78-.82-1.25-.96-.46-2.68.18-3.78.94-1.64,2.16-3.12,3.21-4.7,1.1-1.66,2.17-3.33,3.43-4.87,1.19-1.46-.88-3.56-2.09-2.09-1.31,1.6-2.47,3.31-3.61,5.04s-2.39,3.28-3.42,5.01c-.96,1.61-1.71,3.65-1.1,5.52s2.31,2.89,4.1,3.34c2.58.65,4.97.13,7.31-1.1,3.88-2.04,6.89-5.08,9.49-8.55,2.63-3.53,5.01-7.43,6.56-11.56.67-1.78-2.18-2.55-2.85-.78h0Z"/>
      </g>
      <polyline class="cls-3" points="68.39 85.49 74.35 87.35 76.77 85.8 70.81 83.95"/>
      <line class="cls-3" x1="71.93" y1="89.11" x2="74.35" y2="87.35"/>
      <line class="cls-3" x1="73.65" y1="84.84" x2="71.37" y2="86.42"/>
    </g>
  </g>
</svg>